PathFileType	4	(X/Y/Z)	/Users/niels/Desktop/University/Third Semester/Perception and Action/Exam/Gymnastics Motion Tracking/Code for Gym Tracking/Analyzed Data/Webcam_Backflip/id2_5_pure_Sports2D/id2_5_pure_Sports2D_px_person00.trc
DataRate	CameraRate	NumFrames	NumMarkers	Units	OrigDataRate	OrigDataStartFrame	OrigNumFrames
29.874476987447697	29.874476987447697	8	22	m	29.874476987447697	29	239
Frame#	Time	Hip			RHip			RKnee			RAnkle			RBigToe			RSmallToe			RHeel			LHip			LKnee			LAnkle			LBigToe			LSmallToe			LHeel			Neck			Head			Nose			RShoulder			RElbow			RWrist			LShoulder			LElbow			LWrist		
		X1	Y1	Z1	X2	Y2	Z2	X3	Y3	Z3	X4	Y4	Z4	X5	Y5	Z5	X6	Y6	Z6	X7	Y7	Z7	X8	Y8	Z8	X9	Y9	Z9	X10	Y10	Z10	X11	Y11	Z11	X12	Y12	Z12	X13	Y13	Z13	X14	Y14	Z14	X15	Y15	Z15	X16	Y16	Z16	X17	Y17	Z17	X18	Y18	Z18	X19	Y19	Z19	X20	Y20	Z20	X21	Y21	Z21	X22	Y22	Z22
29	0.9707282913165266	0.9423210556702072	-0.6163780294784015	0.0	0.9450355294669879	-0.6140802888523927	0.0	0.9919295286868728	-0.721290221210101	0.0	0.9556424111677704	-0.8302336912647547	0.0	0.992556417917171	-0.8451962323093531	0.0	0.9825714624391128	-0.8480376588182749	0.0	0.9438049414487576	-0.8391659295444011	0.0	0.9448572957980045	-0.6126952182074963	0.0	0.9892317361638923	-0.7190794855837279	0.0	0.9573707019786494	-0.8250254811515698	0.0	0.9970610487761531	-0.8391303395386442	0.0	0.9919852079057375	-0.8368648138768346	0.0	0.9434257342580585	-0.8324114044740991	0.0	0.9869566368695581	-0.4665724675002357	0.0	1.0233141705502722	-0.4032793730422375	0.0	1.0286192193502544	-0.44411913695799166	0.0	0.9768739597968503	-0.48543724047212916	0.0	0.9778689473993206	-0.5611075965241299	0.0	0.9958681151506873	-0.6277636143045602	0.0	0.9756220383625422	-0.482842083249997	0.0	0.9788695777810303	-0.5583935714324649	0.0	1.0027480698019162	-0.618001880359603	0.0
30	1.004201680672269	0.9457362563473123	-0.6179775062678117	0.0	0.9485300569201965	-0.6155813967590538	0.0	0.989227992361541	-0.725762031957007	0.0	0.9558592226581676	-0.8341607072473513	0.0	0.9922446417259407	-0.8492658850381292	0.0	0.9813617848595027	-0.8520318143311443	0.0	0.9446317598511251	-0.8431408774680343	0.0	0.9484069968793111	-0.614716283568751	0.0	0.9863621236560886	-0.7236899619951561	0.0	0.956899884471979	-0.8299664239293042	0.0	0.992431579017294	-0.8349649424856079	0.0	0.9880219414381194	-0.8325911398405614	0.0	0.9436061573644986	-0.836741587627177	0.0	0.9878682565768707	-0.46650842702652956	0.0	1.0252846315897923	-0.40327244064242923	0.0	1.0298636943410255	-0.4436313664857527	0.0	0.9763187596107374	-0.4850097825189426	0.0	0.9578988315126798	-0.5597981760568732	0.0	0.9554076535012016	-0.6294945789933257	0.0	0.9764462290456355	-0.483007459609539	0.0	0.9600003252901141	-0.5577202874425816	0.0	0.9651837786010499	-0.6204791786384312	0.0
31	1.037675070028011	0.9478505936615919	-0.6153296120515028	0.0	0.9503609727003713	-0.6126824289456333	0.0	0.9877506884128422	-0.7251139281657822	0.0	0.956266913826292	-0.8337273745452158	0.0	0.9929624826211342	-0.8490103602338391	0.0	0.9813246104072638	-0.8515951744507417	0.0	0.9454635010269367	-0.8431647452264953	0.0	0.9509900400198869	-0.6121665965773903	0.0	0.9845779011680726	-0.7232422202499885	0.0	0.9569635220533466	-0.8298784138287896	0.0	0.9861068316183897	-0.8199348477024415	0.0	0.982303821626864	-0.8174356101394145	0.0	0.944310967508505	-0.8366378011102874	0.0	0.9888001756313829	-0.46330338111563685	0.0	1.028123465867845	-0.4003343169340136	0.0	1.031640593225947	-0.44006055001422734	0.0	0.9762501059509863	-0.4806263624915395	0.0	0.9407557391965714	-0.5495404935418059	0.0	0.9190200857898256	-0.6162244848373901	0.0	0.9775453563505693	-0.4792411987150669	0.0	0.9441625366253008	-0.5480781059191283	0.0	0.9315704012981274	-0.6096378327056692	0.0
32	1.0711484593837535	0.9484597837760227	-0.6086382357124783	0.0	0.9507204277867725	-0.605569951116681	0.0	0.987344069484094	-0.7193876383280509	0.0	0.9567385266270612	-0.8291482702735264	0.0	0.9945376554688645	-0.8446845314105879	0.0	0.9825875198149167	-0.8471537944755407	0.0	0.9460532854078513	-0.8394169631818986	0.0	0.9520443128282968	-0.6051840646956862	0.0	0.9837257576588511	-0.7177573555646649	0.0	0.9572781279563066	-0.8251054305113007	0.0	0.9782167770044874	-0.7952735153030199	0.0	0.9747223992591403	-0.7928437353453306	0.0	0.945218485027227	-0.8325533929511422	0.0	0.9893895835973271	-0.45682821511757343	0.0	1.0314137401836339	-0.39442228114817834	0.0	1.0335643292044496	-0.43346427832625284	0.0	0.9766866346076396	-0.47242877122306426	0.0	0.9274066619540596	-0.5316875032141414	0.0	0.889548277204143	-0.5904407330914635	0.0	0.97818500215129	-0.4714405595540343	0.0	0.9320763679085459	-0.5309304623762651	0.0	0.905398281743232	-0.5882873763776449	0.0
33	1.1046218487394959	0.9478732925465547	-0.598640646649686	0.0	0.9500935337967629	-0.5950891326657632	0.0	0.9874954245206115	-0.7093702301787282	0.0	0.9570606565468238	-0.8209860320244355	0.0	0.9966235257259382	-0.8369244838115755	0.0	0.9847510388771201	-0.8395143984135462	0.0	0.9461710459288916	-0.8323285750278246	0.0	0.9514389899803528	-0.5945928643122823	0.0	0.9833673478871472	-0.7079389481477427	0.0	0.9574360408428952	-0.8164260911035939	0.0	0.9709166518187197	-0.7676270909864933	0.0	0.9672888516075016	-0.7655459751146654	0.0	0.945794565213804	-0.8251659422521689	0.0	0.989316976882818	-0.44736154601798556	0.0	1.0347511702085637	-0.3858019803691638	0.0	1.0352481126182502	-0.42428464288548506	0.0	0.9775473210180162	-0.4609235503762546	0.0	0.9180998366395878	-0.5083059229061011	0.0	0.8680850519405747	-0.5559445373666476	0.0	0.9778164313205445	-0.459931267431855	0.0	0.9239053766638868	-0.5084242001852797	0.0	0.8881972461163015	-0.5602591450108119	0.0
34	1.138095238095238	0.9465536166674628	-0.5861299333130698	0.0	0.9487747342056426	-0.582225520313415	0.0	0.9875766072101396	-0.6962972374949721	0.0	0.9570773081917615	-0.8100412766890762	0.0	0.9988336814466158	-0.8265137086628731	0.0	0.9871803667587237	-0.8294548912827666	0.0	0.9457308979285919	-0.8225028097281207	0.0	0.9493879834391362	-0.581399569432433	0.0	0.9830684058652489	-0.6949326155375118	0.0	0.9572191260964779	-0.804818039345618	0.0	0.9686249798831537	-0.7479994674602718	0.0	0.964340134702106	-0.7464071651081776	0.0	0.9456802748370294	-0.8150775781339942	0.0	0.9884568109287639	-0.43559465457932145	0.0	1.0378530413684517	-0.37508689445141447	0.0	1.0364704559211848	-0.41325497645247783	0.0	0.9785979876313858	-0.44687537085535983	0.0	0.9124362760855612	-0.4816213650133319	0.0	0.8542158985953372	-0.516656021021034	0.0	0.9763948164759386	-0.44549478581285573	0.0	0.9193461569793138	-0.4829447107545077	0.0	0.87891210512304	-0.5291603327983001	0.0
35	1.1715686274509804	0.9447731125864642	-0.571921313471481	0.0	0.9467477146343242	-0.5679136697181439	0.0	0.9870757693668384	-0.6815562064231864	0.0	0.9568054413437037	-0.7973966177218025	0.0	1.000793900127287	-0.8145175098010452	0.0	0.9893335857948778	-0.8178915158832952	0.0	0.9448939392326375	-0.8109161843626822	0.0	0.9463416873311639	-0.5666392971951127	0.0	0.9826069812063875	-0.6801115727850681	0.0	0.9567802190937595	-0.7914857568258918	0.0	0.973950804932786	-0.7431431120288813	0.0	0.9686404328662279	-0.7419048567881074	0.0	0.9450531413386318	-0.8031197248123294	0.0	0.98697939670767	-0.4224798960861309	0.0	1.0405426957774853	-0.3632064384269145	0.0	1.0372378058287328	-0.4012393858835568	0.0	0.9795272625710508	-0.43119079437732144	0.0	0.9096555256498466	-0.45358991845033614	0.0	0.8467687922125304	-0.475913255393873	0.0	0.9744290720119952	-0.42935436085633305	0.0	0.9176959113475336	-0.45686146041765663	0.0	0.8749421178930044	-0.49776744381938676	0.0
36	1.2050420168067226	0.9426364879519515	-0.5569763187200996	0.0	0.9439761616864696	-0.5531024005245831	0.0	0.9857545122695169	-0.6664638331343289	0.0	0.9563936395826887	-0.7843690027473949	0.0	1.0022113605613998	-0.8023106377711087	0.0	0.9908915748817763	-0.8060579186377814	0.0	0.9439822597853947	-0.798836018672403	0.0	0.943025254865782	-0.5514228676020654	0.0	0.9819755626336163	-0.664884330198603	0.0	0.9564960492737717	-0.7778094799782794	0.0	0.9841844649114772	-0.7490726608771758	0.0	0.9779894608016685	-0.7478746623482787	0.0	0.944460032346992	-0.7905283878012616	0.0	0.9852917525047611	-0.409055823570415	0.0	1.0427108119519293	-0.35124682688549796	0.0	1.0377039542041697	-0.3891248049902049	0.0	0.9801150159666795	-0.41486681291046823	0.0	0.908907223696173	-0.4257253240987759	0.0	0.8444017289126402	-0.43627508606589643	0.0	0.9726741111213231	-0.41300571915611917	0.0	0.9179050268748351	-0.43218219269398483	0.0	0.8736862927990545	-0.46790796021225023	0.0
